<mxfile host="app.diagrams.net" modified="2024-04-18T04:31:24.595Z" agent="Mozilla/5.0 (Windows NT 10.0; Win64; x64) AppleWebKit/537.36 (KHTML, like Gecko) Chrome/123.0.0.0 Safari/537.36" etag="Nn4I3s75Lx3cevlqx8pv" version="24.2.5" type="device">
  <diagram name="Page-1" id="3ThRPnhOoZxk1OaaGIeL">
    <mxGraphModel dx="1434" dy="772" grid="1" gridSize="10" guides="1" tooltips="1" connect="1" arrows="1" fold="1" page="1" pageScale="1" pageWidth="850" pageHeight="1100" math="0" shadow="0">
      <root>
        <mxCell id="0" />
        <mxCell id="1" parent="0" />
        <mxCell id="OmKIjEjE0jU5wocypJ4i-4" style="edgeStyle=orthogonalEdgeStyle;rounded=0;orthogonalLoop=1;jettySize=auto;html=1;exitX=1;exitY=0.25;exitDx=0;exitDy=0;entryX=0;entryY=0.25;entryDx=0;entryDy=0;" parent="1" source="OmKIjEjE0jU5wocypJ4i-1" target="OmKIjEjE0jU5wocypJ4i-2" edge="1">
          <mxGeometry relative="1" as="geometry" />
        </mxCell>
        <mxCell id="OmKIjEjE0jU5wocypJ4i-1" value="IDLE" style="rounded=0;whiteSpace=wrap;html=1;" parent="1" vertex="1">
          <mxGeometry x="103" y="110" width="130" height="90" as="geometry" />
        </mxCell>
        <mxCell id="OmKIjEjE0jU5wocypJ4i-8" style="edgeStyle=orthogonalEdgeStyle;rounded=0;orthogonalLoop=1;jettySize=auto;html=1;exitX=1;exitY=0.25;exitDx=0;exitDy=0;entryX=0;entryY=0.25;entryDx=0;entryDy=0;" parent="1" source="OmKIjEjE0jU5wocypJ4i-2" target="OmKIjEjE0jU5wocypJ4i-3" edge="1">
          <mxGeometry relative="1" as="geometry" />
        </mxCell>
        <mxCell id="OmKIjEjE0jU5wocypJ4i-23" style="edgeStyle=orthogonalEdgeStyle;rounded=0;orthogonalLoop=1;jettySize=auto;html=1;exitX=0;exitY=0.75;exitDx=0;exitDy=0;entryX=1;entryY=0.75;entryDx=0;entryDy=0;" parent="1" source="OmKIjEjE0jU5wocypJ4i-2" target="OmKIjEjE0jU5wocypJ4i-1" edge="1">
          <mxGeometry relative="1" as="geometry">
            <Array as="points">
              <mxPoint x="320" y="178" />
              <mxPoint x="280" y="178" />
            </Array>
          </mxGeometry>
        </mxCell>
        <mxCell id="S6YGoidDr0y0VSNxopbD-1" style="edgeStyle=orthogonalEdgeStyle;rounded=0;orthogonalLoop=1;jettySize=auto;html=1;exitX=0.5;exitY=0;exitDx=0;exitDy=0;entryX=0.5;entryY=0;entryDx=0;entryDy=0;" edge="1" parent="1" source="OmKIjEjE0jU5wocypJ4i-2" target="OmKIjEjE0jU5wocypJ4i-1">
          <mxGeometry relative="1" as="geometry">
            <Array as="points">
              <mxPoint x="435" y="50" />
              <mxPoint x="168" y="50" />
            </Array>
          </mxGeometry>
        </mxCell>
        <mxCell id="OmKIjEjE0jU5wocypJ4i-2" value="BTN_PRESSED" style="rounded=0;whiteSpace=wrap;html=1;" parent="1" vertex="1">
          <mxGeometry x="370" y="110" width="130" height="90" as="geometry" />
        </mxCell>
        <mxCell id="OmKIjEjE0jU5wocypJ4i-11" style="edgeStyle=orthogonalEdgeStyle;rounded=0;orthogonalLoop=1;jettySize=auto;html=1;exitX=0;exitY=0.75;exitDx=0;exitDy=0;entryX=1;entryY=0.75;entryDx=0;entryDy=0;" parent="1" source="OmKIjEjE0jU5wocypJ4i-3" target="OmKIjEjE0jU5wocypJ4i-2" edge="1">
          <mxGeometry relative="1" as="geometry">
            <Array as="points">
              <mxPoint x="550" y="178" />
              <mxPoint x="530" y="178" />
            </Array>
          </mxGeometry>
        </mxCell>
        <mxCell id="OmKIjEjE0jU5wocypJ4i-14" style="edgeStyle=orthogonalEdgeStyle;rounded=0;orthogonalLoop=1;jettySize=auto;html=1;exitX=0.5;exitY=1;exitDx=0;exitDy=0;entryX=0.5;entryY=0;entryDx=0;entryDy=0;" parent="1" source="OmKIjEjE0jU5wocypJ4i-3" target="OmKIjEjE0jU5wocypJ4i-13" edge="1">
          <mxGeometry relative="1" as="geometry" />
        </mxCell>
        <mxCell id="OmKIjEjE0jU5wocypJ4i-3" value="BTN_RELEASED" style="rounded=0;whiteSpace=wrap;html=1;" parent="1" vertex="1">
          <mxGeometry x="725" y="110" width="130" height="90" as="geometry" />
        </mxCell>
        <mxCell id="OmKIjEjE0jU5wocypJ4i-6" value="btn_i == 1" style="text;html=1;align=center;verticalAlign=middle;resizable=0;points=[];autosize=1;strokeColor=none;fillColor=none;" parent="1" vertex="1">
          <mxGeometry x="260" y="108" width="80" height="30" as="geometry" />
        </mxCell>
        <mxCell id="OmKIjEjE0jU5wocypJ4i-9" value="btn_i == 0 &amp;amp; size_r &amp;lt; 5" style="text;html=1;align=center;verticalAlign=middle;resizable=0;points=[];autosize=1;strokeColor=none;fillColor=none;" parent="1" vertex="1">
          <mxGeometry x="549" y="108" width="140" height="30" as="geometry" />
        </mxCell>
        <mxCell id="OmKIjEjE0jU5wocypJ4i-12" value="btn_i == 1" style="text;html=1;align=center;verticalAlign=middle;resizable=0;points=[];autosize=1;strokeColor=none;fillColor=none;" parent="1" vertex="1">
          <mxGeometry x="480" y="279" width="80" height="30" as="geometry" />
        </mxCell>
        <mxCell id="OmKIjEjE0jU5wocypJ4i-17" style="edgeStyle=orthogonalEdgeStyle;rounded=0;orthogonalLoop=1;jettySize=auto;html=1;exitX=0.5;exitY=1;exitDx=0;exitDy=0;entryX=0.5;entryY=1;entryDx=0;entryDy=0;" parent="1" source="OmKIjEjE0jU5wocypJ4i-13" target="OmKIjEjE0jU5wocypJ4i-1" edge="1">
          <mxGeometry relative="1" as="geometry">
            <mxPoint x="790" y="406" as="targetPoint" />
          </mxGeometry>
        </mxCell>
        <mxCell id="OmKIjEjE0jU5wocypJ4i-19" style="edgeStyle=orthogonalEdgeStyle;rounded=0;orthogonalLoop=1;jettySize=auto;html=1;exitX=0;exitY=0.5;exitDx=0;exitDy=0;entryX=0.5;entryY=1;entryDx=0;entryDy=0;" parent="1" source="OmKIjEjE0jU5wocypJ4i-13" target="OmKIjEjE0jU5wocypJ4i-2" edge="1">
          <mxGeometry relative="1" as="geometry" />
        </mxCell>
        <mxCell id="OmKIjEjE0jU5wocypJ4i-13" value="SEND_CHAR" style="rounded=0;whiteSpace=wrap;html=1;" parent="1" vertex="1">
          <mxGeometry x="725" y="261" width="130" height="90" as="geometry" />
        </mxCell>
        <mxCell id="OmKIjEjE0jU5wocypJ4i-15" value="char_exp_r == 1" style="text;html=1;align=center;verticalAlign=middle;resizable=0;points=[];autosize=1;strokeColor=none;fillColor=none;" parent="1" vertex="1">
          <mxGeometry x="685" y="214" width="110" height="30" as="geometry" />
        </mxCell>
        <mxCell id="OmKIjEjE0jU5wocypJ4i-18" value="&amp;nbsp;word_exp_r == 1" style="text;html=1;align=center;verticalAlign=middle;resizable=0;points=[];autosize=1;strokeColor=none;fillColor=none;" parent="1" vertex="1">
          <mxGeometry x="420" y="340" width="120" height="30" as="geometry" />
        </mxCell>
        <mxCell id="OmKIjEjE0jU5wocypJ4i-21" value="btn_i == 1" style="text;html=1;align=center;verticalAlign=middle;resizable=0;points=[];autosize=1;strokeColor=none;fillColor=none;" parent="1" vertex="1">
          <mxGeometry x="579" y="153" width="80" height="30" as="geometry" />
        </mxCell>
        <mxCell id="OmKIjEjE0jU5wocypJ4i-26" value="illegal_exp_r == 1" style="text;html=1;align=center;verticalAlign=middle;resizable=0;points=[];autosize=1;strokeColor=none;fillColor=none;" parent="1" vertex="1">
          <mxGeometry x="245" y="154" width="120" height="30" as="geometry" />
        </mxCell>
        <mxCell id="S6YGoidDr0y0VSNxopbD-2" value="btn_i == 0 &amp;amp; size_r == 5" style="text;html=1;align=center;verticalAlign=middle;resizable=0;points=[];autosize=1;strokeColor=none;fillColor=none;" vertex="1" parent="1">
          <mxGeometry x="230" y="20" width="150" height="30" as="geometry" />
        </mxCell>
      </root>
    </mxGraphModel>
  </diagram>
</mxfile>
